<?xml version="1.0" standalone="no"?><!DOCTYPE svg PUBLIC "-//W3C//DTD SVG 1.1//EN" "http://www.w3.org/Graphics/SVG/1.1/DTD/svg11.dtd"><svg t="1778562823695" class="icon" viewBox="0 0 1024 1024" version="1.1" xmlns="http://www.w3.org/2000/svg" p-id="10770" xmlns:xlink="http://www.w3.org/1999/xlink" width="200" height="200"><path d="M767.2 1001.6c-4 0-8 0-11.2-0.8l-638.4-85.6c-8.8-0.8-15.2-9.6-13.6-17.6 0.8-8.8 9.6-15.2 17.6-13.6L760 968.8c26.4 3.2 44.8-11.2 52.8-26.4s11.2-38.4-6.4-58.4L602.4 647.2c-20.8-24-26.4-57.6-14.4-86.4 12-29.6 39.2-49.6 70.4-52l343.2-28.8c8.8-0.8 16.8 5.6 17.6 14.4 0.8 8.8-5.6 16.8-14.4 17.6l-343.2 28.8c-20 1.6-36 13.6-44 32-7.2 18.4-4 38.4 8.8 53.6l204 236.8c23.2 26.4 27.2 64 10.4 95.2-15.2 26.4-43.2 43.2-73.6 43.2z" fill="#313C42" p-id="10771"></path><path d="M175.2 917.6c-6.4 0-12-4-14.4-9.6l-80-176.8C32 699.2 3.2 646.4 3.2 588 4 493.6 80.8 416 175.2 416s171.2 76.8 171.2 171.2c0 58.4-28.8 111.2-77.6 143.2l-80 176.8c-0.8 6.4-7.2 10.4-13.6 10.4z m0-469.6c-76.8 0-139.2 62.4-139.2 139.2 0 48.8 24.8 92.8 66.4 118.4 2.4 1.6 4.8 4 6.4 7.2l67.2 148.8 67.2-148.8c1.6-3.2 3.2-5.6 6.4-7.2 41.6-25.6 66.4-70.4 66.4-118.4-0.8-76-63.2-139.2-140.8-139.2z" fill="#313C42" p-id="10772"></path><path d="M187.2 525.6l47.2 118.4h-25.6l-10.4-27.2h-47.2l-9.6 27.2h-25.6l46.4-118.4h24.8m-28.8 71.2h32l-16-44-16 44m28.8-87.2h-25.6c-6.4 0-12.8 4-15.2 10.4l-46.4 118.4c-1.6 4.8-1.6 10.4 1.6 15.2 3.2 4 8 7.2 13.6 7.2h25.6c6.4 0 12.8-4 15.2-10.4l5.6-16h24.8l6.4 16.8c2.4 6.4 8 10.4 15.2 10.4h25.6c5.6 0 10.4-2.4 13.6-7.2 3.2-4 3.2-9.6 1.6-15.2l-47.2-118.4c-1.6-7.2-7.2-11.2-14.4-11.2zM832.8 524c-6.4 0-12-4-14.4-9.6l-80-176.8c-48.8-32-77.6-84.8-77.6-143.2 0-94.4 76.8-171.2 171.2-171.2 94.4 0 172 76.8 172 171.2 0 58.4-28.8 111.2-77.6 143.2l-80 176.8c-1.6 5.6-7.2 9.6-13.6 9.6z m0-469.6c-76.8 0-139.2 62.4-139.2 139.2 0 48.8 24.8 92.8 66.4 118.4 2.4 1.6 4.8 4 6.4 7.2l67.2 148.8 67.2-148.8c1.6-3.2 3.2-5.6 6.4-7.2 41.6-25.6 66.4-70.4 66.4-118.4-0.8-76.8-63.2-139.2-140.8-139.2z" fill="#313C42" p-id="10773"></path><path d="M841.6 124.8c10.4 0 18.4 0.8 23.2 1.6 4.8 0.8 9.6 2.4 13.6 5.6 4 2.4 7.2 6.4 10.4 11.2 2.4 4.8 4 9.6 4 15.2 0 6.4-1.6 12-4.8 16.8-3.2 4.8-8 8.8-13.6 11.2 8 2.4 14.4 6.4 18.4 12 4 5.6 6.4 12 6.4 20 0 5.6-1.6 12-4 17.6-2.4 5.6-6.4 10.4-11.2 13.6-4.8 3.2-10.4 5.6-17.6 6.4-4.8 0.8-15.2 0.8-32 0.8h-44.8V124.8h52m-25.6 52h17.6c10.4 0 16.8 0 19.2-0.8 4.8-0.8 8-2.4 10.4-4.8 2.4-2.4 4-5.6 4-10.4 0-4-0.8-7.2-3.2-9.6-2.4-2.4-5.6-4-9.6-4.8-2.4 0-10.4-0.8-22.4-0.8h-16v31.2m0 56.8h24.8c9.6 0 15.2 0 18.4-0.8 4-0.8 7.2-2.4 9.6-5.6 2.4-2.4 4-6.4 4-11.2 0-4-0.8-7.2-3.2-9.6-1.6-2.4-4.8-4.8-8-5.6-3.2-1.6-11.2-1.6-23.2-1.6H816v34.4m25.6-124.8h-52c-8.8 0-16 7.2-16 16V256c0 8.8 7.2 16 16 16h44.8c23.2 0 30.4-0.8 33.6-0.8 9.6-0.8 18.4-4 24.8-8.8 7.2-4.8 12.8-11.2 16.8-19.2s5.6-16 5.6-24.8c0-11.2-3.2-20.8-9.6-29.6-1.6-1.6-2.4-3.2-4-4.8 4.8-8 7.2-16 7.2-25.6 0-8.8-2.4-16-6.4-23.2-4-6.4-8.8-12-15.2-16-5.6-4-12.8-6.4-20-8-5.6-2.4-14.4-2.4-25.6-2.4zM832 214.4h5.6c14.4 0 17.6 0.8 18.4 0.8v1.6h-0.8s-3.2 0.8-15.2 0.8h-8v-3.2z" fill="#313C42" p-id="10774"></path></svg>